# xmcd
#
# Track frame offsets:
# 150
# 22521
# 38508
# 56651
# 72007
# 85120
# 97101
# 110120
# 120617
# 133559
# 149173
# 199467
# 213740
# 227170
# 242087
#
# Disc length: 4432 seconds
#
#
# Revision: 21
# Processed by: cddbd v1.5.1PL2 Copyright (c) Steve Scherf et al.
# Submitted via: FreeRIP 2.943 
#
DISCID=db114e0f
DTITLE=Canned Heat - The Very Best Of Canned Heat
DYEAR=2000
DGENRE=Blues
TTITLE0=On The Road Again
TTITLE1=Amphetamine Annie
TTITLE2=My Crime
TTITLE3=Time Was
TTITLE4=Going Up The Country
TTITLE5=Sugar Bee
TTITLE6=Whiskey Headed Woman
TTITLE7=Bullfrog Blues
TTITLE8=Let's Work Together
TTITLE9=World In A Jug
TTITLE10=Fried Hockey Boogie
TTITLE11=Rollin' and Tumblin'
TTITLE12=I'm Her Man
TTITLE13=Dust My Broom
TTITLE14=Parthenogenesis
EXTD=EMI Records YEAR: 2000
EXTT0=
EXTT1=
EXTT2=
EXTT3=
EXTT4=
EXTT5=
EXTT6=
EXTT7=
EXTT8=
EXTT9=
EXTT10=
EXTT11=
EXTT12=
EXTT13=
EXTT14=
PLAYORDER=
